<svg id="visual" viewBox="0 0 1980 700" width="1980" height="700" xmlns="http://www.w3.org/2000/svg" xmlns:xlink="http://www.w3.org/1999/xlink" version="1.1"><rect x="0" y="0" width="1980" height="700" fill="#24053E"></rect><path d="M0 485L66 485.8C132 486.7 264 488.3 396 502C528 515.7 660 541.3 792 549.8C924 558.3 1056 549.7 1188 544.8C1320 540 1452 539 1584 535.2C1716 531.3 1848 524.7 1914 521.3L1980 518L1980 701L1914 701C1848 701 1716 701 1584 701C1452 701 1320 701 1188 701C1056 701 924 701 792 701C660 701 528 701 396 701C264 701 132 701 66 701L0 701Z" fill="#FCF8FF" stroke-linecap="round" stroke-linejoin="miter"></path></svg>