<svg id="visual" viewBox="0 0 960 540" width="960" height="540" xmlns="http://www.w3.org/2000/svg" xmlns:xlink="http://www.w3.org/1999/xlink" version="1.1"><rect x="0" y="0" width="960" height="540" fill="#24053E"></rect><path d="M0 471L22.8 470.8C45.7 470.7 91.3 470.3 137 474.7C182.7 479 228.3 488 274 490.5C319.7 493 365.3 489 411.2 485.3C457 481.7 503 478.3 548.8 476.2C594.7 474 640.3 473 686 473.8C731.7 474.7 777.3 477.3 823 480.3C868.7 483.3 914.3 486.7 937.2 488.3L960 490L960 541L937.2 541C914.3 541 868.7 541 823 541C777.3 541 731.7 541 686 541C640.3 541 594.7 541 548.8 541C503 541 457 541 411.2 541C365.3 541 319.7 541 274 541C228.3 541 182.7 541 137 541C91.3 541 45.7 541 22.8 541L0 541Z" fill="#FCF8FF" stroke-linecap="round" stroke-linejoin="miter"></path></svg>